<?xml version="1.0" encoding="UTF-8"?>
<svg width="224px" height="224px" viewBox="0 0 224 224" version="1.1" xmlns="http://www.w3.org/2000/svg" xmlns:xlink="http://www.w3.org/1999/xlink">
    <title>Ear Piercing</title>
    <g id="Ear-Piercing" stroke="none" stroke-width="1" fill="none" fill-rule="evenodd">
        <g id="Group-2" transform="translate(85.651163, 82.000000)">
            <g id="Group-Copy" transform="translate(4.705882, 4.705882)" fill="#FFC599" opacity="0.5">
                <path d="M39.2339261,17.6470588 L39.2339493,24.6584381 C40.2733191,26.6726481 42.507913,31.0897604 44.4448645,35.503912 L44.7510621,36.2075876 C46.4693357,40.1908423 47.879617,44.0671832 47.879617,46.0601915 C47.879617,51.1599481 43.7454474,55.2941176 38.6456908,55.2941176 C33.5459343,55.2941176 29.4117647,51.1599481 29.4117647,46.0601915 C29.4117647,41.7449015 36.0233784,28.600261 38.0574324,24.6584381 L38.0574555,17.6470588 L39.2339261,17.6470588 Z M38.6456908,0 C43.5187916,0 47.4692202,3.95042868 47.4692202,8.82352941 C47.4692202,13.6966301 43.5187916,17.6470588 38.6456908,17.6470588 C33.7725901,17.6470588 29.8221614,13.6966301 29.8221614,8.82352941 C29.8221614,3.95042868 33.7725901,0 38.6456908,0 Z" id="Combined-Shape"></path>
                <path d="M9.82216142,17.6470588 L9.82218455,24.6584381 C10.8615544,26.6726481 13.0961483,31.0897604 15.0330998,35.503912 L15.3392974,36.2075876 C17.057571,40.1908423 18.4678523,44.0671832 18.4678523,46.0601915 C18.4678523,51.1599481 14.3336827,55.2941176 9.23392613,55.2941176 C4.13416955,55.2941176 0,51.1599481 0,46.0601915 C0,41.7449015 6.61161371,28.600261 8.64566771,24.6584381 L8.64569083,17.6470588 L9.82216142,17.6470588 Z M9.23392613,0 C14.1070269,0 18.0574555,3.95042868 18.0574555,8.82352941 C18.0574555,13.6966301 14.1070269,17.6470588 9.23392613,17.6470588 C4.3608254,17.6470588 0.410396717,13.6966301 0.410396717,8.82352941 C0.410396717,3.95042868 4.3608254,0 9.23392613,0 Z" id="Combined-Shape-Copy"></path>
            </g>
            <g id="Group" stroke="#F26B1C" stroke-width="2">
                <circle id="Oval" cx="9.23392613" cy="8.82352941" r="7.82352941"></circle>
                <line x1="9.23392613" y1="18.2352941" x2="9.23392613" y2="25.2941176" id="Line" stroke-linecap="square"></line>
                <path d="M9.23051687,25.694711 C10.3526044,27.8861673 12.3580692,31.8964024 14.1161497,35.9029139 L14.4210867,36.60368 C16.0702827,40.4268007 17.4678523,44.1439301 17.4678523,46.0601915 C17.4678523,48.3339274 16.5462387,50.392409 15.0561911,51.8824565 C13.5661436,53.3725041 11.507662,54.2941176 9.23392613,54.2941176 C6.96019021,54.2941176 4.90170868,53.3725041 3.41166113,51.8824565 C1.92161357,50.392409 1,48.3339274 1,46.0601915 C1,42.0238512 6.93882263,30.1320067 9.23051687,25.694711 Z" id="Oval-Copy"></path>
            </g>
            <g id="Group-Copy" transform="translate(29.411765, 0.000000)" stroke="#F26B1C" stroke-width="2">
                <circle id="Oval" cx="9.23392613" cy="8.82352941" r="7.82352941"></circle>
                <line x1="9.23392613" y1="18.2352941" x2="9.23392613" y2="25.2941176" id="Line" stroke-linecap="square"></line>
                <path d="M9.23051687,25.694711 C10.3526044,27.8861673 12.3580692,31.8964024 14.1161497,35.9029139 L14.4210867,36.60368 C16.0702827,40.4268007 17.4678523,44.1439301 17.4678523,46.0601915 C17.4678523,48.3339274 16.5462387,50.392409 15.0561911,51.8824565 C13.5661436,53.3725041 11.507662,54.2941176 9.23392613,54.2941176 C6.96019021,54.2941176 4.90170868,53.3725041 3.41166113,51.8824565 C1.92161357,50.392409 1,48.3339274 1,46.0601915 C1,42.0238512 6.93882263,30.1320067 9.23051687,25.694711 Z" id="Oval-Copy"></path>
            </g>
        </g>
    </g>
</svg>