<?xml version="1.0" encoding="UTF-8"?>
<svg width="224px" height="224px" viewBox="0 0 224 224" version="1.1" xmlns="http://www.w3.org/2000/svg" xmlns:xlink="http://www.w3.org/1999/xlink">
    <title>Hair Services</title>
    <g id="Hair-Services" stroke="none" stroke-width="1" fill="none" fill-rule="evenodd">
        <g id="HairServices" transform="translate(77.000000, 77.000000)">
            <path d="M21.9446375,4.33375631 L21.9815419,4.41750319 L22.0057928,4.52008311 L26.3655568,34.8779706 L26.3647826,56.1605456 C26.9087328,54.8741713 27.8650676,53.7738263 29.1211827,53.0532884 C31.1421454,51.8940153 33.6320742,51.8940153 35.6530369,53.0532884 C37.6739996,54.2125614 38.9189639,56.3549864 38.9189639,58.6735325 C38.9189639,60.9920786 37.6739996,63.1345035 35.6530369,64.2937766 C35.0022343,64.6670927 34.3027996,64.9201912 33.5860544,65.0530723 L33.2784088,65.1024088 L33.323319,65.220817 C34.2351188,67.4837382 36.4470168,68.9804571 38.9187449,68.9793966 C39.2005764,68.9792757 39.429144,69.2076472 39.429265,69.4894787 C39.4293859,69.7713102 39.2010143,69.9998778 38.9191828,69.9999993 C35.9340982,70.0012795 33.271687,68.1323002 32.2750822,65.3344644 C32.2547752,65.277455 32.2452176,65.2192286 32.2453581,65.1620001 C31.1647159,65.1383353 30.0891568,64.8490299 29.1211827,64.2937766 C27.2487514,63.2197047 26.0424456,61.3016846 25.8752438,59.1815653 L25.8552557,59.1838336 C25.6047388,59.1838336 25.3963844,59.0033144 25.3531763,58.7652598 L25.3449546,58.6735325 L25.3486968,40.0249121 L17.6553975,43.8470674 L17.6564181,58.6735325 C17.6564181,58.955364 17.4279485,59.1838336 17.146117,59.1838336 L17.1261289,59.1815653 C16.9589271,61.3016846 15.7526212,63.2197047 13.8801899,64.2937765 C11.8592272,65.4530496 9.36929851,65.4530496 7.34833581,64.2937765 C5.32737311,63.1345035 4.0824088,60.9920786 4.0824088,58.6735325 C4.0824088,56.3549864 5.32737308,54.2125615 7.34833579,53.0532884 C9.3692985,51.8940154 11.8592273,51.8940154 13.88019,53.0532884 C15.1366319,53.7740139 16.0931375,54.874744 16.6370147,56.1615499 L16.6389221,43.5883684 C16.6349665,43.553434 16.6346893,43.5184491 16.6379092,43.4839529 L16.6410105,34.8053438 L20.9955799,4.52008311 C21.0693272,4.00718353 21.728989,3.94507459 21.9446375,4.33375631 Z" id="Combined-Shape" fill-opacity="0.5" fill="#FFC599"></path>
            <path d="M61.236132,4.0824088 L61.236099,4.5044088 L61.4295302,4.50778606 C66.118517,4.64513551 69.8772306,8.46490008 69.8772306,13.1568935 L69.8772306,65.0744832 C69.8772306,67.4639243 67.9276235,69.400949 65.5226612,69.400949 C63.117699,69.400949 61.1680919,67.4639243 61.1680919,65.0744832 L61.167099,47.9674088 L45.927099,47.9683034 L45.927099,4.0824088 L61.236132,4.0824088 Z" id="Combined-Shape" fill-opacity="0.5" fill="#FFC599"></path>
            <g id="streamline-icon-hair-dress-cut@140x140-(1)" stroke="#F26B1C" stroke-linecap="round" stroke-linejoin="round" stroke-width="2">
                <path d="M65.3185408,62.0126766 C65.3185408,64.4021177 63.3689337,66.3391424 60.9639714,66.3391424 C58.5590092,66.3391424 56.609402,64.4021177 56.609402,62.0126766 L56.609402,1.44215527 C61.4193266,1.44215527 65.3185408,5.31620471 65.3185408,10.0950869 L65.3185408,62.0126766 Z" id="Path"></path>
                <line x1="41.3684092" y1="1.44215527" x2="56.609402" y2="1.44215527" id="Path"></line>
                <line x1="41.3684092" y1="44.7068133" x2="56.609402" y2="44.7068133" id="Path"></line>
                <line x1="41.3684092" y1="10.0950869" x2="47.9002633" y2="10.0950869" id="Path"></line>
                <line x1="41.3684092" y1="18.7480185" x2="47.9002633" y2="18.7480185" id="Path"></line>
                <line x1="41.3684092" y1="27.4009501" x2="47.9002633" y2="27.4009501" id="Path"></line>
                <line x1="41.3684092" y1="36.0538817" x2="47.9002633" y2="36.0538817" id="Path"></line>
                <path d="M0,55.5229779 C0,57.8415239 1.24496431,59.9839489 3.26592701,61.1432219 C5.28688971,62.3024949 7.77681845,62.3024949 9.79778115,61.1432219 C11.8187438,59.9839489 13.0637082,57.8415239 13.0637082,55.5229779 C13.0637082,53.2044318 11.8187439,51.0620068 9.79778117,49.9027338 C7.77681846,48.7434607 5.2868897,48.7434607 3.26592699,49.9027338 C1.24496428,51.0620068 0,53.2044318 0,55.5229779 Z" id="Path"></path>
                <path d="M21.7728469,55.5229779 C21.7728469,57.8415239 23.0178112,59.9839489 25.0387739,61.1432219 C27.0597366,62.302495 29.5496654,62.302495 31.5706281,61.1432219 C33.5915908,59.9839489 34.8365551,57.8415239 34.8365551,55.5229779 C34.8365551,53.2044318 33.5915908,51.0620068 31.5706281,49.9027337 C29.5496654,48.7434607 27.0597366,48.7434607 25.0387739,49.9027337 C23.0178112,51.0620068 21.7728469,53.2044318 21.7728469,55.5229779 Z" id="Path"></path>
                <path d="M34.8365551,66.339143 C32.0669534,66.3403313 29.5974086,64.606742 28.6733879,62.0126766" id="Path"></path>
                <polyline id="Path" points="13.0637082 55.5229779 13.0637082 31.7274159 17.4182775 1.44215527 21.7728469 31.7274159 21.7728469 55.5229779"></polyline>
                <line x1="13.0637082" y1="40.3803475" x2="21.7728469" y2="36.0538817" id="Path"></line>
            </g>
        </g>
    </g>
</svg>