<?xml version="1.0" encoding="UTF-8"?>
<svg width="224px" height="224px" viewBox="0 0 224 224" version="1.1" xmlns="http://www.w3.org/2000/svg" xmlns:xlink="http://www.w3.org/1999/xlink">
    <title>Makeup &amp; Lashes</title>
    <g id="Makeup-&amp;-Lashes" stroke="none" stroke-width="1" fill="none" fill-rule="evenodd">
        <g id="Lipstick" transform="translate(27.365375, 77.565127)">
            <g id="streamline-icon-make-up-lipstick@140x140-(1)" transform="translate(36.733884, 38.486094) rotate(-45.000000) translate(-36.733884, -38.486094) translate(13.397158, 11.598573)" fill="#FFC599" fill-opacity="0.5">
                <path d="M45.9020931,0.0950890682 C46.3684534,0.28827005 46.6727994,0.74328813 46.6734537,1.24832577 L46.6734537,14.8750323 C46.6702388,15.5357853 46.406715,16.1686096 45.9400773,16.6361576 L36.957,25.621 L37.8618305,26.5263286 C38.3391659,27.0039412 38.3391659,27.7783043 37.8618305,28.2559169 L28.13,37.992 L29.0388634,38.9019417 C29.5161988,39.3795544 29.5161988,40.1539174 29.0388634,40.63153 L16.6189825,53.0586221 C15.6643114,54.0138473 14.116484,54.0138473 13.161813,53.0586221 L0.71600329,40.6055862 C-0.23866767,39.650361 -0.238667671,38.1016348 0.716003289,37.1464096 L13.1358842,24.7193175 C13.6133583,24.2418435 14.3869949,24.2418435 14.864469,24.7193175 L15.7670609,25.6234835 L25.4989927,15.8859012 C25.9763282,15.4082886 26.7502419,15.4082886 27.2275775,15.8859012 L28.1288096,16.78781 L44.541773,0.365317142 C44.8990084,0.00852857323 45.4357328,-0.0980919139 45.9020931,0.0950890682 Z" id="Combined-Shape"></path>
            </g>
            <g id="streamline-icon-make-up-lipstick@140x140-(1)" transform="translate(35.563289, 35.563289) rotate(-45.000000) translate(-35.563289, -35.563289) translate(12.156724, 8.675768)" stroke="#F26B1C" stroke-linecap="round" stroke-linejoin="round" stroke-width="2">
                <path d="M5.33701211,28.169467 L25.0180121,28.1751788 C25.6807875,28.1753712 26.218229,28.7128127 26.2184214,29.3755881 L26.2234263,46.6204643 C26.2238109,47.9460151 25.1495515,49.0202744 23.8240008,49.0198898 L6.54312272,49.0148745 C5.21757196,49.0144898 4.1426889,47.9396067 4.1423042,46.614056 L4.13729936,29.3691797 C4.13729936,28.7064044 4.67423673,28.169467 5.33701211,28.169467 Z" id="Path" transform="translate(15.180363, 38.594678) rotate(45.000000) translate(-15.180363, -38.594678) "></path>
                <path d="M20.3600857,18.6591497 L35.125636,18.663435 C35.7884114,18.6636274 36.3258529,19.2010689 36.3260453,19.8638443 L36.3299669,33.3765309 L19.1642946,33.3715491 L19.1603729,19.8588625 C19.1601806,19.1960871 19.6973103,18.6589574 20.3600857,18.6591497 Z" id="Path" transform="translate(27.745170, 26.017840) rotate(45.000000) translate(-27.745170, -26.017840) "></path>
                <path d="M46.0933027,16.328813 L37.2754143,25.1494203 L28.6110891,16.4776638 L44.7208314,0.358568093 C45.0714671,0.00837101216 45.5982757,-0.0962797155 46.0560202,0.0933323458 C46.5137647,0.282944407 46.8124882,0.729556258 46.8131304,1.22526358 L46.8131304,14.6002237 C46.8099748,15.2487695 46.5513195,15.8699027 46.0933027,16.328813 Z" id="Path"></path>
            </g>
        </g>
        <g id="Eyelashes-Box" transform="translate(93.579121, 91.507257)">
            <rect id="Rectangle" fill-opacity="0.5" fill="#FFC599" x="5.42087862" y="3.49274261" width="68" height="47" rx="1"></rect>
            <rect id="Rectangle-Copy" stroke="#F26B1C" stroke-width="2" x="0.420878621" y="1.49274261" width="70" height="45" rx="1"></rect>
            <g id="Eyelashes" transform="translate(3.420879, 4.492743)" stroke="#F26B1C" stroke-width="2">
                <path d="M7.1074681,0.999477841 C7.453507,3.27305281 8.55616746,5.29694605 10.1497851,6.80425983 C11.9508404,8.50777722 14.3785079,9.55172414 17.0491803,9.55172414 C19.7198528,9.55172414 22.1475202,8.50777722 23.9485755,6.80425983 C25.5422112,5.29692905 26.6448785,3.27300715 26.9909043,0.999400916 L38.0090957,0.999400916 C38.3551215,3.27300715 39.4577888,5.29692905 41.0514245,6.80425983 C42.8524798,8.50777722 45.2801472,9.55172414 47.9508197,9.55172414 C50.6214921,9.55172414 53.0491596,8.50777722 54.8502149,6.80425983 C56.4438325,5.29694605 57.546493,3.27305281 57.8925319,0.99947784 L64,1 L64,30 L1,30 L1.0000855,0.999999996 Z" id="Combined-Shape"></path>
                <g transform="translate(5.012452, 11.259584)" id="Group-2" stroke-linecap="round">
                    <g transform="translate(42.600173, 6.121545) rotate(7.000000) translate(-42.600173, -6.121545) translate(31.411648, 1.311200)">
                        <path d="M0,3.0200573 C4.74716909,5.5553598 8.6243672,6.51325573 11.6315943,5.89374509 C14.6388214,5.27423445 17.8891279,3.30965276 21.3825137,0" id="Path-8"></path>
                        <line x1="1.87856709" y1="4.16589672" x2="0.110503947" y2="6.46749711" id="Line-5"></line>
                        <line x1="4.3510929" y1="5.17202489" x2="3.1079235" y2="7.99312938" id="Line-6"></line>
                        <line x1="6.96174863" y1="6.07622505" x2="6.46448087" y2="9.11433757" id="Line-6"></line>
                        <line x1="8.99612273" y1="6.07622505" x2="8.9678588" y2="9.11433757" id="Line-6-Copy"></line>
                        <line x1="11.4371585" y1="6.07622505" x2="12.1291038" y2="9.41175772" id="Line-6-Copy-2"></line>
                        <line x1="13.9234973" y1="5.56987296" x2="14.9180328" y2="8.60798548" id="Line-6-Copy-3"></line>
                        <line x1="16.4098361" y1="4.55716878" x2="17.7501462" y2="6.95034627" id="Line-6-Copy-3"></line>
                        <line x1="18.3989071" y1="3.03811252" x2="20.3879781" y2="5.06352087" id="Line-6-Copy-4"></line>
                        <line x1="20.3879781" y1="1.01270417" x2="22.3770492" y2="3.03811252" id="Line-6-Copy-5"></line>
                    </g>
                    <g transform="translate(11.698534, 6.121545) scale(-1, 1) rotate(7.000000) translate(-11.698534, -6.121545) translate(0.510009, 1.311200)">
                        <path d="M0,3.0200573 C4.74716909,5.5553598 8.6243672,6.51325573 11.6315943,5.89374509 C14.6388214,5.27423445 17.8891279,3.30965276 21.3825137,1.2586757e-13" id="Path-8"></path>
                        <line x1="1.87856709" y1="4.16589672" x2="0.110503947" y2="6.46749711" id="Line-5"></line>
                        <line x1="4.3510929" y1="5.17202489" x2="3.1079235" y2="7.99312938" id="Line-6"></line>
                        <line x1="6.96174863" y1="6.07622505" x2="6.46448087" y2="9.11433757" id="Line-6"></line>
                        <line x1="8.99612273" y1="6.07622505" x2="8.9678588" y2="9.11433757" id="Line-6-Copy"></line>
                        <line x1="11.4371585" y1="6.07622505" x2="12.1291038" y2="9.41175772" id="Line-6-Copy-2"></line>
                        <line x1="13.9234973" y1="5.56987296" x2="14.9180328" y2="8.60798548" id="Line-6-Copy-3"></line>
                        <line x1="16.4098361" y1="4.55716878" x2="17.7501462" y2="6.95034627" id="Line-6-Copy-3"></line>
                        <line x1="18.3989071" y1="3.03811252" x2="20.3879781" y2="5.06352087" id="Line-6-Copy-4"></line>
                        <line x1="20.3879781" y1="1.01270417" x2="22.3770492" y2="3.03811252" id="Line-6-Copy-5"></line>
                    </g>
                </g>
            </g>
        </g>
    </g>
</svg>