<?xml version="1.0" encoding="UTF-8"?>
<svg width="224px" height="224px" viewBox="0 0 224 224" version="1.1" xmlns="http://www.w3.org/2000/svg" xmlns:xlink="http://www.w3.org/1999/xlink">
    <title>Skin</title>
    <g id="Skin" stroke="none" stroke-width="1" fill="none" fill-rule="evenodd">
        <g id="Group-3" transform="translate(69.000000, 85.000000)">
            <g id="Group-2" transform="translate(4.000000, 5.000000)">
                <line x1="81.9786996" y1="1.82174888" x2="0" y2="1.82174888" id="Path" stroke="#FFC599" stroke-width="2" opacity="0.5" stroke-linecap="round" stroke-linejoin="round"></line>
                <path d="M81.9786996,23.91518 C74.9467489,19.4409648 63.1964686,10.0698885 49.8248318,20.0895074 C44.6429684,23.975905 37.5179061,23.975905 32.3360426,20.0895074 L32.3360426,20.0895074 C19.3360426,10.3467944 7.97561659,18.8470746 0,23.91518" id="Path" stroke="#FFC599" stroke-width="2" opacity="0.5" stroke-linecap="round" stroke-linejoin="round"></path>
                <g id="Group" transform="translate(1.562500, 31.812500)" fill="#FFC599" fill-opacity="0.5">
                    <circle id="Oval" cx="12.9375" cy="2" r="2"></circle>
                    <circle id="Oval-Copy-3" cx="2" cy="16.0625" r="2"></circle>
                    <circle id="Oval-Copy-4" cx="27" cy="16.0625" r="2"></circle>
                    <circle id="Oval-Copy-5" cx="52" cy="16.0625" r="2"></circle>
                    <circle id="Oval-Copy-6" cx="77" cy="16.0625" r="2"></circle>
                    <circle id="Oval-Copy" cx="39.5" cy="2" r="2"></circle>
                    <circle id="Oval-Copy-2" cx="66.0625" cy="2" r="2"></circle>
                </g>
            </g>
            <g id="Group-2">
                <line x1="81.9786996" y1="1.82174888" x2="0" y2="1.82174888" id="Path" stroke="#F26B1C" stroke-width="2" stroke-linecap="round" stroke-linejoin="round"></line>
                <g id="Group" transform="translate(1.562500, 32.812500)" fill="#F26B1C">
                    <circle id="Oval" cx="12.9375" cy="2" r="2"></circle>
                    <circle id="Oval-Copy-3" cx="2" cy="16.0625" r="2"></circle>
                    <circle id="Oval-Copy-4" cx="27" cy="16.0625" r="2"></circle>
                    <circle id="Oval-Copy-5" cx="52" cy="16.0625" r="2"></circle>
                    <circle id="Oval-Copy-6" cx="77" cy="16.0625" r="2"></circle>
                    <circle id="Oval-Copy" cx="39.5" cy="2" r="2"></circle>
                    <circle id="Oval-Copy-2" cx="66.0625" cy="2" r="2"></circle>
                </g>
                <path d="M81.9786996,23.91518 C74.9467489,19.4409648 63.1964686,10.0698885 49.8248318,20.0895074 C44.6429684,23.975905 37.5179061,23.975905 32.3360426,20.0895074 L32.3360426,20.0895074 C19.3360426,10.3467944 7.97561659,18.8470746 0,23.91518" id="Path" stroke="#F26B1C" stroke-width="2" stroke-linecap="round" stroke-linejoin="round"></path>
            </g>
        </g>
    </g>
</svg>