<?xml version="1.0" encoding="UTF-8"?>
<svg width="224px" height="224px" viewBox="0 0 224 224" version="1.1" xmlns="http://www.w3.org/2000/svg" xmlns:xlink="http://www.w3.org/1999/xlink">
    <title>Wax &amp; Brows</title>
    <g id="Wax-&amp;-Brows" stroke="none" stroke-width="1" fill="none" fill-rule="evenodd">
        <g id="Group-3" transform="translate(65.000000, 80.386305)">
            <g id="Group-4" transform="translate(4.000000, 4.000000)" fill="#FFC599" fill-opacity="0.5">
                <path d="M59.3426275,39.5516681 L64.8538391,44.1590851 C59.2636047,49.7067064 51.7433225,54.2798819 42.2929926,57.8786117 C32.8426627,61.4773416 21.2783841,59.2704436 7.60015688,51.2579179 L12.1039536,46.2394431 C22.8298259,49.7067064 31.1646765,51.2012416 37.1085055,50.7230487 C43.0523344,50.2448559 50.4637084,46.5210623 59.3426275,39.5516681 Z M53.5448989,13.2978423 L62.5450542,16.5826423 L88.5762157,42.6138038 C90.1544675,44.1920556 90.1544675,46.7509073 88.5762157,48.3291591 C86.9979639,49.9074109 84.4391122,49.9074109 82.8608604,48.3291591 L56.8296989,22.2979976 L53.5448989,13.2978423 Z M0,16.7894709 C26.1268535,4.07619568 43.710479,-1.41704708 52.7508765,0.309742667 C61.7912739,2.03653241 70.3345019,8.88640328 78.3805605,20.8593553 C70.8257962,13.4792801 62.2825682,9.78924245 52.7508765,9.78924245 C43.2191847,9.78924245 25.6355592,16.0242363 0,28.4942239 Z" id="Combined-Shape"></path>
            </g>
            <g id="Group" transform="translate(50.687221, 10.440165)" stroke="#F26B1C" stroke-width="2">
                <path d="M36.2362114,17.3319696 L42.7735218,20.3733361 L36.2362114,23.4147025 L-0.356179175,23.4147025 C-1.19602933,23.4147025 -1.95637095,23.074286 -2.50675003,22.5239069 C-3.0571291,21.9735278 -3.39754564,21.2131862 -3.39754564,20.3733361 C-3.39754564,19.5334859 -3.0571291,18.7731443 -2.50675003,18.2227652 C-1.95637095,17.6723861 -1.19602933,17.3319696 -0.356179175,17.3319696 L36.2362114,17.3319696 Z" id="Rectangle" transform="translate(20.373336, 20.373336) rotate(-135.000000) translate(-20.373336, -20.373336) "></path>
                <line x1="7.31277877" y1="11.1735303" x2="11.3127788" y2="7.17353034" id="Line-4"></line>
                <line x1="32.3127788" y1="36.1735303" x2="36.3127788" y2="32.1735303" id="Line-4"></line>
            </g>
            <path d="M0,16.7894709 L0,28.4942239 C25.6355592,16.0242363 43.2191847,9.78924245 52.7508765,9.78924245 C62.2825682,9.78924245 70.8257962,13.4792801 78.3805605,20.8593553 C70.3345019,8.88640328 61.7912739,2.03653241 52.7508765,0.309742667 C43.710479,-1.41704708 26.1268535,4.07619568 0,16.7894709 Z" id="Path-7" stroke="#F26B1C" stroke-width="2"></path>
            <g id="Group-2" transform="translate(7.318670, 36.303229)" stroke="#F26B1C" stroke-linecap="round" stroke-width="2">
                <path d="M0.00622718217,7.72717492 C12.316061,14.2140472 22.3699823,16.6649376 30.167991,15.0798461 C37.9659998,13.4947546 46.3943349,8.46813926 55.4529965,0" id="Path-8"></path>
                <line x1="4.78528396" y1="10.4876687" x2="0.281487292" y2="16.1174145" id="Line-5"></line>
                <line x1="10.4150298" y1="12.739567" x2="7.60015688" y2="20.0582366" id="Line-6"></line>
                <line x1="17.0768805" y1="14.8026601" x2="15.5756454" y2="22.4989402" id="Line-6"></line>
                <line x1="23.1529494" y1="15.8567278" x2="23.0109665" y2="23.6967709" id="Line-6-Copy"></line>
                <line x1="29.7898359" y1="15.3409796" x2="31.1813304" y2="23.8104658" id="Line-6-Copy-2"></line>
                <line x1="35.8823064" y1="13.8169552" x2="38.4303387" y2="21.2327468" id="Line-6-Copy-3"></line>
                <line x1="41.7788239" y1="10.8574605" x2="45.319454" y2="17.2433637" id="Line-6-Copy-3"></line>
                <line x1="46.8519477" y1="7.31011375" x2="51.4476881" y2="12.9841768" id="Line-6-Copy-4"></line>
                <line x1="52.0239579" y1="3.24843894" x2="57.5351695" y2="8.03825829" id="Line-6-Copy-5"></line>
            </g>
        </g>
    </g>
</svg>